<?xml version="1.0" encoding="UTF-8"?>
<!DOCTYPE svg PUBLIC "-//W3C//DTD SVG 1.1//EN" "http://www.w3.org/Graphics/SVG/1.1/DTD/svg11.dtd">
<svg version="1.1" xmlns="http://www.w3.org/2000/svg" xmlns:xlink="http://www.w3.org/1999/xlink" x="0" y="0" width="1684" height="829" viewBox="0, 0, 1684, 829">
  <g id="Layer_1">
    <path d="M0,0 L1684,0 L1684,828 L0,828 z" fill="#FFFFFF"/>
    <path d="M76.251,201.943 L450.174,201.943 L450.174,267.784 L76.251,267.784 L76.251,201.943 z" fill-opacity="0" stroke="#1A1A1A" stroke-width="2.485"/>
    <path d="M688.304,109.133 L1534.279,109.133 L1534.279,761.325 L688.304,761.325 L688.304,109.133 z" fill-opacity="0" stroke="#1A1A1A" stroke-width="2.485"/>
    <path d="M815.152,679 L815.152,191.467 L886.711,191.467 L886.711,679 L815.152,679 z" fill-opacity="0" stroke="#1A1A1A" stroke-width="2.485"/>
    <path d="M825.24,668.639 L825.24,617.274 L876.605,617.274 L876.605,668.639 L825.24,668.639 z" fill-opacity="0" stroke="#1A1A1A" stroke-width="2.485"/>
    <path d="M825.24,253.97 L825.24,202.604 L876.605,202.604 L876.605,253.97 L825.24,253.97 z" fill-opacity="0" stroke="#1A1A1A" stroke-width="2.485"/>
    <path d="M825.24,520.536 L825.24,349.964 L876.605,349.964 L876.605,520.536 L825.24,520.536 z" fill-opacity="0" stroke="#1A1A1A" stroke-width="2.485"/>
    <path d="M708.106,679 L708.106,191.467 L779.664,191.467 L779.664,679 L708.106,679 z" fill-opacity="0" stroke="#1A1A1A" stroke-width="2.485"/>
    <path d="M922.186,191.459 L1413.17,191.459 L1413.17,678.991 L922.186,678.991 L922.186,191.459 z" fill-opacity="0" stroke="#1A1A1A" stroke-width="2.485"/>
    <path d="M65.07,109.394 L461.354,109.394 L461.354,761.586 L65.07,761.586 L65.07,109.394 z" fill-opacity="0" stroke="#1A1A1A" stroke-width="2.485"/>
    <path d="M76.251,124.376 L450.174,124.376 L450.174,190.216 L76.251,190.216 L76.251,124.376 z" fill-opacity="0" stroke="#1A1A1A" stroke-width="2.485"/>
    <path d="M76.251,285.474 L450.174,285.474 L450.174,656.764 L76.251,656.764 L76.251,285.474 z" fill-opacity="0" stroke="#1A1A1A" stroke-width="2.485"/>
    <path d="M93.158,303.288 L140.365,303.288 L140.365,350.495 L93.158,350.495 L93.158,303.288 z" fill-opacity="0" stroke="#1A1A1A" stroke-width="2.485"/>
    <path d="M76.251,681.733 L450.174,681.733 L450.174,747.573 L76.251,747.573 L76.251,681.733 z" fill-opacity="0" stroke="#1A1A1A" stroke-width="2.485"/>
    <path d="M139.585,714.655 C139.585,725.825 130.53,734.881 119.359,734.881 C108.189,734.881 99.133,725.825 99.133,714.655 C99.133,703.484 108.189,694.429 119.359,694.429 C130.53,694.429 139.585,703.484 139.585,714.655 z" fill-opacity="0" stroke="#1A1A1A" stroke-width="2.485"/>
    <path d="M197.127,714.655 C197.127,725.825 188.072,734.881 176.901,734.881 C165.731,734.881 156.675,725.825 156.675,714.655 C156.675,703.484 165.731,694.429 176.901,694.429 C188.072,694.429 197.127,703.484 197.127,714.655 z" fill-opacity="0" stroke="#1A1A1A" stroke-width="2.485"/>
    <path d="M254.669,714.655 C254.669,725.825 245.614,734.881 234.443,734.881 C223.272,734.881 214.217,725.825 214.217,714.655 C214.217,703.484 223.272,694.429 234.443,694.429 C245.614,694.429 254.669,703.484 254.669,714.655 z" fill-opacity="0" stroke="#1A1A1A" stroke-width="2.485"/>
    <path d="M312.211,714.655 C312.211,725.825 303.156,734.881 291.985,734.881 C280.814,734.881 271.759,725.825 271.759,714.655 C271.759,703.484 280.814,694.429 291.985,694.429 C303.156,694.429 312.211,703.484 312.211,714.655 z" fill-opacity="0" stroke="#1A1A1A" stroke-width="2.485"/>
    <path d="M369.741,714.655 C369.741,725.825 360.685,734.881 349.515,734.881 C338.344,734.881 329.288,725.825 329.288,714.655 C329.288,703.484 338.344,694.429 349.515,694.429 C360.685,694.429 369.741,703.484 369.741,714.655 z" fill-opacity="0" stroke="#1A1A1A" stroke-width="2.485"/>
    <path d="M427.283,714.655 C427.283,725.825 418.227,734.881 407.056,734.881 C395.886,734.881 386.83,725.825 386.83,714.655 C386.83,703.484 395.886,694.429 407.056,694.429 C418.227,694.429 427.283,703.484 427.283,714.655 z" fill-opacity="0" stroke="#1A1A1A" stroke-width="2.485"/>
    <path d="M944.361,214.813 L1007.022,214.813 L1007.022,277.474 L944.361,277.474 L944.361,214.813 z" fill-opacity="0" stroke="#1A1A1A" stroke-width="2.485"/>
    <path d="M184.601,211.26 L341.809,211.26 L341.809,258.467 L184.601,258.467 L184.601,211.26 z" fill-opacity="0" stroke="#1A1A1A" stroke-width="2.485"/>
    <path d="M83.555,211.26 L130.762,211.26 L130.762,258.467 L83.555,258.467 L83.555,211.26 z" fill-opacity="0" stroke="#1A1A1A" stroke-width="2.485"/>
    <path d="M396.098,211.26 L443.305,211.26 L443.305,258.467 L396.098,258.467 L396.098,211.26 z" fill-opacity="0" stroke="#1A1A1A" stroke-width="2.485"/>
    <path d="M1448.648,622.191 L1448.648,248.268 L1514.488,248.268 L1514.488,622.191 L1448.648,622.191 z" fill-opacity="0" stroke="#1A1A1A" stroke-width="2.485"/>
    <path d="M1481.57,558.844 C1492.74,558.844 1501.796,567.899 1501.796,579.07 C1501.796,590.24 1492.74,599.296 1481.57,599.296 C1470.399,599.296 1461.344,590.24 1461.344,579.07 C1461.344,567.899 1470.399,558.844 1481.57,558.844 z" fill-opacity="0" stroke="#1A1A1A" stroke-width="2.485"/>
    <path d="M1481.57,501.314 C1492.74,501.314 1501.796,510.37 1501.796,521.54 C1501.796,532.711 1492.74,541.766 1481.57,541.766 C1470.399,541.766 1461.344,532.711 1461.344,521.54 C1461.344,510.37 1470.399,501.314 1481.57,501.314 z" fill-opacity="0" stroke="#1A1A1A" stroke-width="2.485"/>
    <path d="M1481.57,443.772 C1492.74,443.772 1501.796,452.828 1501.796,463.998 C1501.796,475.169 1492.74,484.224 1481.57,484.224 C1470.399,484.224 1461.344,475.169 1461.344,463.998 C1461.344,452.828 1470.399,443.772 1481.57,443.772 z" fill-opacity="0" stroke="#1A1A1A" stroke-width="2.485"/>
    <path d="M1481.57,386.23 C1492.74,386.23 1501.796,395.286 1501.796,406.456 C1501.796,417.627 1492.74,426.682 1481.57,426.682 C1470.399,426.682 1461.344,417.627 1461.344,406.456 C1461.344,395.286 1470.399,386.23 1481.57,386.23 z" fill-opacity="0" stroke="#1A1A1A" stroke-width="2.485"/>
    <path d="M1481.57,328.688 C1492.74,328.688 1501.796,337.744 1501.796,348.914 C1501.796,360.085 1492.74,369.14 1481.57,369.14 C1470.399,369.14 1461.344,360.085 1461.344,348.914 C1461.344,337.744 1470.399,328.688 1481.57,328.688 z" fill-opacity="0" stroke="#1A1A1A" stroke-width="2.485"/>
    <path d="M1481.57,271.159 C1492.74,271.159 1501.796,280.214 1501.796,291.385 C1501.796,302.555 1492.74,311.611 1481.57,311.611 C1470.399,311.611 1461.344,302.555 1461.344,291.385 C1461.344,280.214 1470.399,271.159 1481.57,271.159 z" fill-opacity="0" stroke="#1A1A1A" stroke-width="2.485"/>
    <path d="M233.943,43.251 C233.943,45.398 233.207,47.046 231.736,48.197 C230.264,49.348 228.168,49.923 225.446,49.923 L222.923,49.923 L222.923,58.287 L220.467,58.287 L220.467,37.044 L225.977,37.044 C231.288,37.044 233.943,39.113 233.943,43.251 z M222.923,47.832 L225.147,47.832 C227.338,47.832 228.926,47.478 229.91,46.77 C230.895,46.062 231.387,44.922 231.387,43.351 C231.387,41.957 230.923,40.917 229.993,40.231 C229.064,39.545 227.626,39.202 225.678,39.202 L222.923,39.202 L222.923,47.832 z M251.734,50.321 C251.734,52.91 251.081,54.935 249.776,56.395 C248.47,57.856 246.667,58.586 244.365,58.586 C242.927,58.586 241.66,58.249 240.565,57.574 C239.469,56.899 238.618,55.936 238.009,54.686 C237.401,53.436 237.096,51.981 237.096,50.321 C237.096,47.732 237.749,45.713 239.055,44.264 C240.36,42.814 242.164,42.09 244.465,42.09 C246.678,42.09 248.442,42.831 249.759,44.314 C251.076,45.796 251.734,47.799 251.734,50.321 z M239.619,50.321 C239.619,52.357 240.023,53.906 240.83,54.968 C241.638,56.03 242.827,56.561 244.398,56.561 C245.992,56.561 247.198,56.03 248.016,54.968 C248.835,53.906 249.245,52.357 249.245,50.321 C249.245,48.285 248.835,46.742 248.016,45.691 C247.198,44.64 245.992,44.114 244.398,44.114 C242.805,44.114 241.61,44.634 240.814,45.674 C240.017,46.714 239.619,48.263 239.619,50.321 z M263.218,42.09 C263.926,42.09 264.557,42.145 265.11,42.256 L264.778,44.479 C264.114,44.347 263.539,44.28 263.052,44.28 C261.747,44.28 260.64,44.8 259.733,45.84 C258.826,46.88 258.372,48.186 258.372,49.757 L258.372,58.287 L255.949,58.287 L255.949,42.355 L257.941,42.355 L258.206,45.309 L258.339,45.309 C258.914,44.269 259.622,43.473 260.463,42.919 C261.304,42.366 262.223,42.09 263.218,42.09 z M273.209,56.595 C273.629,56.595 274.039,56.561 274.437,56.495 C274.835,56.429 275.156,56.362 275.4,56.296 L275.4,58.155 C275.134,58.265 274.747,58.365 274.238,58.453 C273.729,58.542 273.264,58.586 272.844,58.586 C269.768,58.586 268.23,56.96 268.23,53.707 L268.23,44.247 L265.973,44.247 L265.973,43.085 L268.23,42.09 L269.259,38.671 L270.653,38.671 L270.653,42.355 L275.267,42.355 L275.267,44.247 L270.653,44.247 L270.653,53.607 C270.653,54.559 270.88,55.294 271.334,55.814 C271.787,56.335 272.412,56.595 273.209,56.595 z M285.822,42.09 C286.53,42.09 287.161,42.145 287.714,42.256 L287.382,44.479 C286.718,44.347 286.143,44.28 285.656,44.28 C284.35,44.28 283.244,44.8 282.337,45.84 C281.43,46.88 280.976,48.186 280.976,49.757 L280.976,58.287 L278.553,58.287 L278.553,42.355 L280.544,42.355 L280.81,45.309 L280.943,45.309 C281.518,44.269 282.226,43.473 283.067,42.919 C283.908,42.366 284.826,42.09 285.822,42.09 z M300.46,58.287 L299.962,56.03 L299.862,56.03 C299.066,57.026 298.274,57.701 297.489,58.055 C296.703,58.409 295.713,58.586 294.518,58.586 C292.947,58.586 291.714,58.177 290.817,57.358 C289.921,56.539 289.473,55.377 289.473,53.873 C289.473,50.664 292.04,48.982 297.174,48.828 L299.895,48.761 L299.895,47.765 C299.895,46.504 299.624,45.58 299.082,44.994 C298.54,44.408 297.683,44.114 296.51,44.114 C295.182,44.114 293.677,44.513 291.996,45.309 L291.265,43.484 C292.04,43.041 292.897,42.704 293.838,42.471 C294.778,42.239 295.713,42.123 296.643,42.123 C298.546,42.123 299.956,42.543 300.875,43.384 C301.793,44.225 302.252,45.575 302.252,47.434 L302.252,58.287 L300.46,58.287 z M295.016,56.595 C296.521,56.595 297.699,56.18 298.551,55.35 C299.403,54.52 299.829,53.364 299.829,51.881 L299.829,50.454 L297.406,50.554 C295.503,50.62 294.125,50.919 293.274,51.45 C292.422,51.981 291.996,52.8 291.996,53.906 C291.996,54.791 292.261,55.46 292.792,55.914 C293.323,56.368 294.065,56.595 295.016,56.595 z M309.621,58.287 L307.198,58.287 L307.198,42.355 L309.621,42.355 L309.621,58.287 z M306.998,38.073 C306.998,37.52 307.131,37.111 307.397,36.845 C307.662,36.58 308.005,36.447 308.426,36.447 C308.802,36.447 309.134,36.58 309.421,36.845 C309.709,37.111 309.853,37.52 309.853,38.073 C309.853,38.604 309.709,39.003 309.421,39.268 C309.134,39.534 308.802,39.667 308.426,39.667 C308.005,39.667 307.662,39.534 307.397,39.268 C307.131,39.003 306.998,38.604 306.998,38.073 z M319.844,56.595 C320.264,56.595 320.673,56.561 321.072,56.495 C321.47,56.429 321.791,56.362 322.034,56.296 L322.034,58.155 C321.769,58.265 321.382,58.365 320.873,58.453 C320.364,58.542 319.899,58.586 319.479,58.586 C316.403,58.586 314.865,56.96 314.865,53.707 L314.865,44.247 L312.608,44.247 L312.608,43.085 L314.865,42.09 L315.894,38.671 L317.288,38.671 L317.288,42.355 L321.902,42.355 L321.902,44.247 L317.288,44.247 L317.288,53.607 C317.288,54.559 317.515,55.294 317.968,55.814 C318.422,56.335 319.047,56.595 319.844,56.595 z" fill="#1A1A1A"/>
    <path d="M1038.812,54.548 L1038.812,33.305 L1041.269,33.305 L1041.269,52.324 L1050.662,52.324 L1050.662,54.548 L1038.812,54.548 z M1063.673,54.548 L1063.175,52.291 L1063.076,52.291 C1062.279,53.287 1061.488,53.962 1060.702,54.316 C1059.917,54.67 1058.927,54.847 1057.732,54.847 C1056.161,54.847 1054.927,54.437 1054.031,53.619 C1053.135,52.8 1052.687,51.638 1052.687,50.134 C1052.687,46.925 1055.253,45.243 1060.387,45.088 L1063.109,45.022 L1063.109,44.026 C1063.109,42.765 1062.838,41.841 1062.296,41.255 C1061.753,40.668 1060.896,40.375 1059.723,40.375 C1058.396,40.375 1056.891,40.773 1055.209,41.57 L1054.479,39.744 C1055.253,39.302 1056.111,38.964 1057.051,38.732 C1057.992,38.5 1058.927,38.384 1059.856,38.384 C1061.759,38.384 1063.17,38.804 1064.088,39.645 C1065.006,40.486 1065.465,41.836 1065.465,43.694 L1065.465,54.548 L1063.673,54.548 z M1058.229,52.855 C1059.734,52.855 1060.913,52.44 1061.765,51.611 C1062.616,50.781 1063.042,49.625 1063.042,48.142 L1063.042,46.715 L1060.619,46.814 C1058.716,46.881 1057.339,47.179 1056.487,47.711 C1055.635,48.242 1055.209,49.06 1055.209,50.167 C1055.209,51.052 1055.475,51.721 1056.006,52.175 C1056.537,52.628 1057.278,52.855 1058.229,52.855 z M1081.298,54.548 L1081.298,44.259 C1081.298,42.953 1081.005,41.979 1080.418,41.338 C1079.832,40.696 1078.908,40.375 1077.647,40.375 C1075.987,40.375 1074.77,40.829 1073.996,41.736 C1073.221,42.643 1072.834,44.126 1072.834,46.184 L1072.834,54.548 L1070.411,54.548 L1070.411,38.616 L1072.369,38.616 L1072.768,40.807 L1072.867,40.807 C1073.376,40.032 1074.073,39.429 1074.958,38.998 C1075.843,38.566 1076.839,38.35 1077.946,38.35 C1079.849,38.35 1081.287,38.81 1082.26,39.728 C1083.234,40.646 1083.721,42.123 1083.721,44.159 L1083.721,54.548 L1081.298,54.548 z M1099.454,52.424 L1099.321,52.424 C1098.215,54.039 1096.555,54.847 1094.342,54.847 C1092.262,54.847 1090.641,54.133 1089.48,52.706 C1088.318,51.279 1087.737,49.259 1087.737,46.648 C1087.737,44.015 1088.318,41.974 1089.48,40.524 C1090.641,39.075 1092.262,38.35 1094.342,38.35 C1096.511,38.35 1098.171,39.136 1099.321,40.707 L1099.487,40.707 L1099.387,39.545 L1099.321,38.417 L1099.321,31.944 L1101.744,31.944 L1101.744,54.548 L1099.786,54.548 L1099.454,52.424 z M1094.641,52.822 C1096.301,52.822 1097.496,52.374 1098.226,51.478 C1098.956,50.582 1099.321,49.138 1099.321,47.146 L1099.321,46.648 C1099.321,44.391 1098.95,42.782 1098.209,41.819 C1097.468,40.856 1096.267,40.375 1094.608,40.375 C1093.192,40.375 1092.113,40.923 1091.372,42.018 C1090.63,43.113 1090.26,44.657 1090.26,46.648 C1090.26,48.684 1090.63,50.222 1091.372,51.262 C1092.113,52.302 1093.203,52.822 1094.641,52.822 z M1117.112,50.2 C1117.112,51.682 1116.564,52.828 1115.469,53.635 C1114.374,54.443 1112.819,54.847 1110.806,54.847 C1108.703,54.847 1107.066,54.515 1105.893,53.851 L1105.893,51.594 C1106.646,51.992 1107.459,52.302 1108.333,52.523 C1109.207,52.745 1110.053,52.855 1110.872,52.855 C1112.133,52.855 1113.101,52.651 1113.776,52.241 C1114.451,51.832 1114.789,51.218 1114.789,50.399 C1114.789,49.779 1114.523,49.248 1113.992,48.806 C1113.461,48.363 1112.41,47.843 1110.839,47.246 C1109.356,46.693 1108.305,46.211 1107.685,45.802 C1107.066,45.393 1106.601,44.928 1106.291,44.408 C1105.982,43.888 1105.827,43.263 1105.827,42.533 C1105.827,41.249 1106.358,40.231 1107.42,39.479 C1108.482,38.727 1109.932,38.35 1111.768,38.35 C1113.472,38.35 1115.143,38.693 1116.78,39.379 L1115.917,41.338 C1114.324,40.696 1112.885,40.375 1111.602,40.375 C1110.451,40.375 1109.589,40.552 1109.013,40.906 C1108.438,41.26 1108.15,41.747 1108.15,42.367 C1108.15,42.809 1108.255,43.18 1108.465,43.479 C1108.676,43.777 1109.024,44.059 1109.511,44.325 C1109.998,44.59 1110.927,44.978 1112.299,45.487 C1114.18,46.173 1115.452,46.864 1116.116,47.561 C1116.78,48.258 1117.112,49.138 1117.112,50.2 z M1127.401,54.847 C1125.1,54.847 1123.313,54.139 1122.041,52.723 C1120.769,51.306 1120.132,49.293 1120.132,46.682 C1120.132,44.026 1120.774,41.974 1122.058,40.524 C1123.341,39.075 1125.167,38.35 1127.534,38.35 C1128.309,38.35 1129.078,38.433 1129.841,38.599 C1130.604,38.765 1131.208,38.959 1131.65,39.18 L1130.92,41.205 C1130.367,41.006 1129.78,40.834 1129.161,40.69 C1128.541,40.547 1127.988,40.475 1127.501,40.475 C1124.27,40.475 1122.655,42.533 1122.655,46.648 C1122.655,48.618 1123.048,50.122 1123.833,51.162 C1124.619,52.203 1125.786,52.723 1127.335,52.723 C1128.663,52.723 1130.024,52.435 1131.418,51.86 L1131.418,54.017 C1130.356,54.57 1129.017,54.847 1127.401,54.847 z M1144.96,54.548 L1144.462,52.291 L1144.363,52.291 C1143.566,53.287 1142.775,53.962 1141.989,54.316 C1141.204,54.67 1140.214,54.847 1139.019,54.847 C1137.448,54.847 1136.214,54.437 1135.318,53.619 C1134.422,52.8 1133.974,51.638 1133.974,50.134 C1133.974,46.925 1136.54,45.243 1141.674,45.088 L1144.396,45.022 L1144.396,44.026 C1144.396,42.765 1144.125,41.841 1143.583,41.255 C1143.04,40.668 1142.183,40.375 1141.01,40.375 C1139.682,40.375 1138.178,40.773 1136.496,41.57 L1135.766,39.744 C1136.54,39.302 1137.398,38.964 1138.338,38.732 C1139.279,38.5 1140.214,38.384 1141.143,38.384 C1143.046,38.384 1144.457,38.804 1145.375,39.645 C1146.293,40.486 1146.752,41.836 1146.752,43.694 L1146.752,54.548 L1144.96,54.548 z M1139.516,52.855 C1141.021,52.855 1142.199,52.44 1143.051,51.611 C1143.903,50.781 1144.329,49.625 1144.329,48.142 L1144.329,46.715 L1141.906,46.814 C1140.003,46.881 1138.626,47.179 1137.774,47.711 C1136.922,48.242 1136.496,49.06 1136.496,50.167 C1136.496,51.052 1136.762,51.721 1137.293,52.175 C1137.824,52.628 1138.565,52.855 1139.516,52.855 z M1159.1,54.847 C1158.06,54.847 1157.114,54.653 1156.262,54.266 C1155.41,53.879 1154.696,53.287 1154.121,52.49 L1153.922,52.49 C1154.055,53.42 1154.121,54.305 1154.121,55.146 L1154.121,61.684 L1151.698,61.684 L1151.698,38.616 L1153.656,38.616 L1153.988,40.807 L1154.121,40.807 C1154.74,39.944 1155.46,39.319 1156.278,38.931 C1157.097,38.544 1158.038,38.35 1159.1,38.35 C1161.224,38.35 1162.856,39.07 1163.995,40.508 C1165.135,41.946 1165.705,43.971 1165.705,46.582 C1165.705,49.193 1165.124,51.223 1163.962,52.673 C1162.801,54.122 1161.18,54.847 1159.1,54.847 z M1158.768,40.375 C1157.13,40.375 1155.952,40.829 1155.233,41.736 C1154.514,42.643 1154.143,44.082 1154.121,46.051 L1154.121,46.582 C1154.121,48.817 1154.492,50.416 1155.233,51.378 C1155.974,52.341 1157.164,52.822 1158.801,52.822 C1160.195,52.822 1161.279,52.263 1162.054,51.146 C1162.828,50.028 1163.215,48.496 1163.215,46.549 C1163.215,44.557 1162.828,43.03 1162.054,41.968 C1161.279,40.906 1160.184,40.375 1158.768,40.375 z M1176.658,54.847 C1174.291,54.847 1172.426,54.128 1171.065,52.689 C1169.705,51.251 1169.024,49.259 1169.024,46.715 C1169.024,44.148 1169.66,42.112 1170.933,40.607 C1172.205,39.103 1173.903,38.35 1176.028,38.35 C1178.019,38.35 1179.596,39.003 1180.757,40.309 C1181.919,41.614 1182.5,43.34 1182.5,45.487 L1182.5,47.014 L1171.547,47.014 C1171.591,48.894 1172.061,50.316 1172.957,51.279 C1173.854,52.241 1175.109,52.723 1176.725,52.723 C1178.451,52.723 1180.143,52.368 1181.803,51.66 L1181.803,53.818 C1180.962,54.172 1180.16,54.432 1179.397,54.598 C1178.633,54.764 1177.72,54.847 1176.658,54.847 z M1175.994,40.375 C1174.711,40.375 1173.688,40.79 1172.924,41.62 C1172.161,42.45 1171.713,43.595 1171.58,45.055 L1179.911,45.055 C1179.911,43.55 1179.574,42.394 1178.899,41.587 C1178.224,40.779 1177.256,40.375 1175.994,40.375 z" fill="#1A1A1A"/>
    <path d="M32.808,87.245 L493.605,87.245 L493.605,783.729 L32.808,783.729 L32.808,87.245 z" fill-opacity="0" stroke="#1A1A1A" stroke-width="2.485"/>
    <path d="M583.854,83.505 L1638.738,83.505 L1638.738,786.959 L583.854,786.959 L583.854,83.505 z" fill-opacity="0" stroke="#1A1A1A" stroke-width="2.485"/>
  </g>
</svg>
